<?xml version="1.0" encoding="utf-8"?>
<!-- Generator: Adobe Illustrator 17.1.0, SVG Export Plug-In . SVG Version: 6.00 Build 0)  -->
<!DOCTYPE svg PUBLIC "-//W3C//DTD SVG 1.1//EN" "http://www.w3.org/Graphics/SVG/1.1/DTD/svg11.dtd">
<svg version="1.1" id="Layer_1" xmlns="http://www.w3.org/2000/svg" xmlns:xlink="http://www.w3.org/1999/xlink" x="0px" y="0px"
	 viewBox="0 0 600 600" enable-background="new 0 0 600 600" xml:space="preserve">
<g>
	<path fill="#60C390" stroke="#376D4F" stroke-width="4" stroke-miterlimit="10" d="M321.6,526.4c9.4,7.5,24.8,11.4,45.6,14.8
		l7.1,1.2c50,8.2,89.3-12.1,96.7-56.9c6.9-42.2-21.2-74.2-75.6-88.4c-5.7-1.6-9.9-4.9-8.4-10l1.9-7.7c41,2,87.8-11,95.9-60.4
		c6.1-37.7-15.2-66.5-53.5-72.7l-5.2-0.8c-14.3-2.3-27.5-3.2-37.8,2.5c-13.2,7.2-25.1,35.3-47.2,121.7c-1.6,6.3-3.1,12.4-4.5,18.2
		c13.4,10.8,27.9,14.5,46.1,16.1l-1.7,6.4c-2.4,6.3-6.9,9.5-15.5,9.5c-13.4-0.1-25.3-0.8-36-2.3C312.1,492.5,311.2,518,321.6,526.4z
		"/>
	<path fill="#60C390" stroke="#376D4F" stroke-width="4" stroke-miterlimit="10" d="M460.6,40.9L230.2,3.3l-47.1,33.9l81.2,13.3
		l-1.9,7.7c-2.2,9.6-26.6,3.7-42.4,10.4s-25.9,23.8-52.2,127.5c-33.2,130-34.4,153.8-22.2,164.4c11.6,10.6,37.6,10.8,34.3,22.9
		l-1.7,6.4L27.6,365.3l1.7-6.4c3.3-12.1,21.5-5.2,37.2-11.3c16.4-6.7,26.6-28.3,59.8-158.3c21.2-83.5,25-111.5,19.8-125.5
		L40.7,139.8L3.1,370.3L139.4,560l230.4,37.6l40.4-29.1c-14.5,0.6-29.4-0.4-44.2-2.9l-165-26.9l1.7-6.4c2.7-12.2,21.5-5.2,37.2-11.3
		c14.5-5.9,24.1-23.4,49-116.6c-35.7-21.2-53.6-69.6-83-174.8c-1.5-6.9-3.7-13.9-2.2-19l1.2-3.1l78.7-57.2
		c43.9-32.2,69.8-56,38.3-71.1C312.4,75,308.4,75,310.5,66l1.9-7.7l131.9,21.5l-1.9,7.7c-1.9,7.7-12.2,5.3-27.7,10.2
		c-22.5,7-41.2,19.3-99.3,61.1l-67.2,48.4c23.1,65,40.4,108.4,56,137.5c21.7-87.8,20.7-104.4,10-115.6
		c-11.4-11.9-31.3-12.4-29.1-22.1l1.9-7.7l154.6,25.2c65,10.6,105.3,41.2,97,91.9c-7.3,44.8-49.1,64-91.7,71.7l-0.2,1.3
		c61.4,20,84.3,55.8,78,94.1c-0.2,1-0.3,1.9-0.5,2.9l35.2-25.3l37.6-230.6L460.6,40.9z"/>
</g>
</svg>
