<?xml version="1.0" encoding="utf-8"?>
<!-- Generator: Adobe Illustrator 18.0.0, SVG Export Plug-In . SVG Version: 6.00 Build 0)  -->
<!DOCTYPE svg PUBLIC "-//W3C//DTD SVG 1.1//EN" "http://www.w3.org/Graphics/SVG/1.1/DTD/svg11.dtd">
<svg version="1.1" id="Layer_1" xmlns="http://www.w3.org/2000/svg" xmlns:xlink="http://www.w3.org/1999/xlink" x="0px" y="0px"
	 viewBox="0 0 3735.1 630.5" enable-background="new 0 0 3735.1 630.5" xml:space="preserve">
<g>
	<path fill="#60C390" stroke="#376D4F" stroke-width="4" stroke-miterlimit="10" d="M320.7,541.2c9.4,7.5,24.8,11.4,45.6,14.8
		l7.1,1.2c50,8.2,89.3-12.1,96.7-56.9c6.9-42.2-21.2-74.2-75.6-88.4c-5.7-1.6-9.9-4.9-8.4-10l1.9-7.7c41,2,87.8-11,95.9-60.4
		c6.1-37.7-15.2-66.5-53.5-72.7l-5.2-0.8c-14.3-2.3-27.5-3.2-37.8,2.5c-13.2,7.2-25.1,35.3-47.2,121.7c-1.6,6.3-3.1,12.4-4.5,18.2
		c13.4,10.8,27.9,14.5,46.1,16.1l-1.7,6.4c-2.4,6.3-6.9,9.5-15.5,9.5c-13.4-0.1-25.3-0.8-36-2.3
		C311.1,507.3,310.2,532.8,320.7,541.2z"/>
	<path fill="#60C390" stroke="#376D4F" stroke-width="4" stroke-miterlimit="10" d="M459.7,55.7L229.3,18.1L182.2,52l81.2,13.3
		l-1.9,7.7c-2.2,9.6-26.6,3.7-42.4,10.4s-25.9,23.8-52.2,127.5c-33.2,130-34.4,153.8-22.2,164.4c11.6,10.6,37.6,10.8,34.3,22.9
		l-1.7,6.4L26.7,380.1l1.7-6.4c3.3-12.1,21.5-5.2,37.2-11.3c16.4-6.7,26.6-28.3,59.8-158.3c21.2-83.5,25-111.5,19.8-125.5
		L39.7,154.6L2.1,385.1l136.3,189.6l230.4,37.6l40.4-29.1c-14.5,0.6-29.4-0.4-44.2-2.9l-165-26.9l1.7-6.4
		c2.7-12.2,21.5-5.2,37.2-11.3c14.5-5.9,24.1-23.4,49-116.6c-35.7-21.2-53.6-69.6-83-174.8c-1.5-6.9-3.7-13.9-2.2-19l1.2-3.1
		l78.7-57.2c43.9-32.2,69.8-56,38.3-71.1c-9.3-4.2-13.3-4.2-11.2-13.2l1.9-7.7l131.9,21.5l-1.9,7.7c-1.9,7.7-12.2,5.3-27.7,10.2
		c-22.5,7-41.2,19.3-99.3,61.1L247.2,222c23.1,65,40.4,108.4,56,137.5c21.7-87.8,20.7-104.4,10-115.6
		c-11.4-11.9-31.3-12.4-29.1-22.1l1.9-7.7l154.6,25.2c65,10.6,105.3,41.2,97,91.9c-7.3,44.8-49.1,64-91.7,71.7l-0.2,1.3
		c61.4,20,84.3,55.8,78,94.1c-0.2,1-0.3,1.9-0.5,2.9l35.2-25.3L596,245.4L459.7,55.7z"/>
</g>
<g>
	<path fill="#376D4F" d="M767.1,547.9v-16.2l20.7-2.4l-63-83.4l-23.4,25.5v51.9c0,4.8,0.3,5.4,4.8,6l20.1,2.4v16.2h-76.2v-16.2
		l18.9-2.1c4.2-0.6,4.8-1.5,4.8-6V355c0-4.5-0.6-5.7-4.8-6l-18.9-2.1v-16.2h76.2v16.2l-20.1,2.4c-4.5,0.6-4.8,1.2-4.8,5.7v85.8
		l83.4-91.2l-18.6-2.4v-16.5h67.5v16.2l-15.3,2.7c-5.4,0.9-6.3,1.8-9,5.1l-65.1,70.2l73.8,99c2.7,3.6,3.6,3.9,8.7,4.8l18.3,3v16.2
		H767.1z"/>
	<path fill="#376D4F" d="M852.6,611.5V595l21.6-2.7c3.6-0.3,4.8-2.1,6.6-6.3l17.4-39.9l-54-127.8c-1.5-3.6-2.7-4.2-6.3-5.1l-12.3-3
		l3.6-16.5h62.1v16.5l-19.8,2.4l39.9,100.8l41.7-100.8l-20.4-2.4l3.3-16.5h59.4v16.5l-10.2,1.5c-3.6,0.6-6,1.8-7.5,5.1l-72.9,175.5
		l29.1,3v16.2H852.6z"/>
	<path fill="#376D4F" d="M1006.2,547.9v-16.5l18.6-1.8c4.2-0.3,4.8-1.5,4.8-6V349.3c0-3.3-0.9-5.4-3.9-6.3l-18-5.7l2.7-15.9h46.5
		v202.2c0,4.8,0.3,5.4,4.8,6l18,2.1v16.2H1006.2z"/>
	<path fill="#376D4F" d="M1224.9,538c-15,8.4-33,13.5-54.6,13.5c-54.3,0-72-35.7-72-80.4c0-54.9,30.6-80.4,68.4-80.4
		c36.6,0,61.8,19.8,61.8,71.7c0,3.9-0.3,9.9-0.6,15h-100.8c0.9,30.3,13.2,51,45.9,51c16.8,0,27.3-3,43.2-10.8L1224.9,538z
		 M1201.2,456.7c-0.6-34.2-16.2-44.1-34.5-44.1c-20.1,0-36.9,10.8-39.3,44.1H1201.2z"/>
	<path fill="#60C390" d="M1257.9,547.9v-16.2l18.9-2.1c4.2-0.6,4.8-1.5,4.8-6V355.3c0-4.5-0.6-5.7-4.8-6l-18.9-2.1v-16.5h89.4
		c51.3,0,65.4,23.4,65.4,53.1c0,28.5-18.3,44.4-36.6,50.4v0.9c34.2,3.9,50.7,24,50.7,54c0,44.4-33.3,58.8-80.4,58.8H1257.9z
		 M1335.3,426.4c23.7,0,49.8-6.9,49.8-39c0-27.6-15.3-34.8-45.3-34.8h-30.9v73.8H1335.3z M1343.1,526c31.5,0,54.9-5.4,54.9-38.7
		c0-29.1-21.3-39.9-48.9-39.9h-40.2V526H1343.1z"/>
	<path fill="#60C390" d="M1452.3,547.9v-16.5l15-1.8c4.2-0.6,4.8-1.5,4.8-6v-102c0-3.3-0.9-5.4-3.9-6.3l-17.1-5.7l2.7-15.9h39.3
		l3,20.7l0.9,0.3c9.9-11.1,24.6-24,45-24c6.9,0,16.2,1.2,21.6,2.7v45.3l-21.3-0.9l-3.6-20.7c-0.3-2.4-0.9-3-3.6-3
		c-13.5,0-28.8,12.3-35.7,18.9v90.3c0,4.8,0.3,5.7,4.8,6l27.6,2.4v16.2H1452.3z"/>
	<path fill="#60C390" d="M1706.4,538c-15,8.4-33,13.5-54.6,13.5c-54.3,0-72-35.7-72-80.4c0-54.9,30.6-80.4,68.4-80.4
		c36.6,0,61.8,19.8,61.8,71.7c0,3.9-0.3,9.9-0.6,15h-100.8c0.9,30.3,13.2,51,45.9,51c16.8,0,27.3-3,43.2-10.8L1706.4,538z
		 M1682.7,456.7c-0.6-34.2-16.2-44.1-34.5-44.1c-20.1,0-36.9,10.8-39.3,44.1H1682.7z"/>
	<path fill="#60C390" d="M1857.3,538.9c-11.4,7.5-31.5,12.6-51.3,12.6c-51.3,0-73.2-31.5-73.2-78.9c0-57,33-81.9,78.6-81.9
		c21.9,0,39,6,45.6,9.3v39.9l-20.1-0.9l-3.6-19.8c-0.3-2.1-0.9-3.3-3.6-4.2c-4.2-1.5-12-2.7-20.4-2.7c-26.7,0-48,15.6-48,58.5
		c0,42,19.8,58.2,48.9,58.2c15,0,30-4.8,38.4-9.9L1857.3,538.9z"/>
	<path fill="#60C390" d="M1968.3,547.9v-16.2l18.9-2.4l-37.5-62.1l-25.2,28.2v28.2c0,4.8,0.3,5.4,4.8,6l18,2.1v16.2h-73.5v-16.5
		l18.6-1.8c4.2-0.3,4.8-1.5,4.8-6V349.3c0-3.3-0.9-5.4-3.9-6.3l-18-5.7l2.7-15.9h46.5v144.3l63.6-72h33.3v16.2l-17.1,3.6
		c-3.6,0.6-4.8,1.5-7.5,4.5l-27.3,30.6l45.6,75.6c2.4,3.6,3.6,3.9,8.7,4.8l15.6,2.7v16.2H1968.3z"/>
	<path fill="#60C390" d="M2174.7,538c-15,8.4-33,13.5-54.6,13.5c-54.3,0-72-35.7-72-80.4c0-54.9,30.6-80.4,68.4-80.4
		c36.6,0,61.8,19.8,61.8,71.7c0,3.9-0.3,9.9-0.6,15h-100.8c0.9,30.3,13.2,51,45.9,51c16.8,0,27.3-3,43.2-10.8L2174.7,538z
		 M2151,456.7c-0.6-34.2-16.2-44.1-34.5-44.1c-20.1,0-36.9,10.8-39.3,44.1H2151z"/>
	<path fill="#60C390" d="M2301.9,547.9v-16.5l14.4-1.8c3.9-0.3,5.4-1.8,5.4-6v-71.1c0-19.5-3.9-38.4-26.1-38.4
		c-17.1,0-33.3,8.4-46.5,19.2v90.3c0,4.8,0.3,5.4,4.8,6l16.8,2.1v16.2H2202v-16.5l15-1.8c4.2-0.6,4.8-1.5,4.8-6v-102
		c0-3.3-0.9-5.4-3.9-6.3l-17.1-5.7l2.7-15.9h39.3l2.4,17.7l0.9,0.3c15.6-11.1,33.9-21,55.5-21c34.5,0,47.4,22.2,47.4,54.9v78
		c0,4.8,0.3,5.4,4.8,6l17.1,2.1v16.2H2301.9z"/>
	<path fill="#60C390" d="M2390.9,547.9v-16.5l15-1.8c4.2-0.6,4.8-1.5,4.8-6v-102c0-3.3-0.9-5.4-3.9-6.3l-17.1-5.7l2.7-15.9h39.3
		l3,20.7l0.9,0.3c9.9-11.1,24.6-24,45-24c6.9,0,16.2,1.2,21.6,2.7v45.3l-21.3-0.9l-3.6-20.7c-0.3-2.4-0.9-3-3.6-3
		c-13.5,0-28.8,12.3-35.7,18.9v90.3c0,4.8,0.3,5.7,4.8,6l27.6,2.4v16.2H2390.9z"/>
	<path fill="#60C390" d="M2516,547.9v-16.5l19.8-1.8c4.2-0.3,4.8-1.5,4.8-6v-102c0-3.3-0.9-5.4-3.9-6.3l-17.1-5.7l2.7-15.9h45.6
		v129.9c0,4.8,0.3,5.4,4.8,6l19.2,2.1v16.2H2516z M2550.2,360.4c-12.3,0-19.5-6.9-19.5-19.2c0-12,7.2-18.9,19.5-18.9
		s19.2,6.9,19.2,18.9C2569.4,353.5,2562.5,360.4,2550.2,360.4z"/>
	<path fill="#60C390" d="M2724.6,547.9l-2.4-19.8l-1.2-0.3c-13.8,13.2-29.4,23.7-52.8,23.7c-34.2,0-56.7-22.2-56.7-77.4
		c0-59.1,26.7-83.4,62.7-83.4c18,0,34.2,6,45.9,14.4V349c0-3-1.2-5.1-3.9-6l-18-5.7l2.7-15.9h45.9v202.2c0,4.8,0.3,5.4,4.8,6
		l15.3,2.1v16.2H2724.6z M2719.5,429.4c-9-7.5-25.2-16.2-41.1-16.2c-28.2,0-39.3,24.6-39.3,60.3c0,41.7,14.1,55.2,35.1,55.2
		c17.7,0,32.1-11.7,45.3-24.9V429.4z"/>
	<path fill="#60C390" d="M2907.5,415c6.3,7.8,11.1,17.1,11.1,31.2c0,35.4-27.3,55.2-62.4,55.2c-10.2,0-19.2-1.2-25.5-3.6l-13.5,26.1
		l36.9,2.1c54,3,78.3,5.7,78.3,41.1c0,29.7-25.5,48.3-77.7,48.3c-51.9,0-69.9-14.1-69.9-36.9c0-14.7,8.1-23.4,18.3-33.9
		c-8.4-2.7-13.2-8.1-13.2-16.2c0-5.1,2.4-10.2,6.6-16.5c4.8-6.9,11.1-14.4,16.5-21.6c-13.2-7.2-22.5-22.2-22.5-42.6
		c0-33.6,24.3-57,65.1-57c10.8,0,20.4,1.2,26.7,3h53.4v19.2L2907.5,415z M2825,549.4c-5.4,5.7-13.2,14.4-13.2,24.9
		c0,16.2,16.8,19.8,46.2,20.1c15.9,0,46.5-2.4,46.5-25.2c0-14.1-11.7-15.3-31.2-17.1L2825,549.4z M2856.2,412.6
		c-21.9,0-37.5,10.8-37.5,34.2c0,17.7,10.2,32.1,36.6,32.1c22.5,0,36.6-13.2,36.6-33.9C2891.9,424.6,2878.7,412.6,2856.2,412.6z"/>
	<path fill="#60C390" d="M3076.1,538c-15,8.4-33,13.5-54.6,13.5c-54.3,0-72-35.7-72-80.4c0-54.9,30.6-80.4,68.4-80.4
		c36.6,0,61.8,19.8,61.8,71.7c0,3.9-0.3,9.9-0.6,15h-100.8c0.9,30.3,13.2,51,45.9,51c16.8,0,27.3-3,43.2-10.8L3076.1,538z
		 M3052.4,456.7c-0.6-34.2-16.2-44.1-34.5-44.1c-20.1,0-36.9,10.8-39.3,44.1H3052.4z"/>
	<path fill="#376D4F" d="M3121.1,551.5c-12.9,0-19.8-6.3-19.8-18.9c0-12.6,6.9-18.9,19.8-18.9c12.6,0,19.8,6.3,19.8,18.9
		C3140.9,545.2,3134,551.5,3121.1,551.5z"/>
	<path fill="#376D4F" d="M3284.9,538.9c-11.4,7.5-31.5,12.6-51.3,12.6c-51.3,0-73.2-31.5-73.2-78.9c0-57,33-81.9,78.6-81.9
		c21.9,0,39,6,45.6,9.3v39.9l-20.1-0.9l-3.6-19.8c-0.3-2.1-0.9-3.3-3.6-4.2c-4.2-1.5-12-2.7-20.4-2.7c-26.7,0-48,15.6-48,58.5
		c0,42,19.8,58.2,48.9,58.2c15,0,30-4.8,38.4-9.9L3284.9,538.9z"/>
	<path fill="#376D4F" d="M3302.9,470.2c0-47.1,24-79.5,75.3-79.5s71.1,32.7,71.1,77.7c0,50.4-22.8,83.1-74.1,83.1
		C3323,551.5,3302.9,517.9,3302.9,470.2z M3421.1,470.2c0-39.3-14.4-56.7-43.5-56.7c-29.4,0-46.5,17.4-46.5,57
		c0,39.9,15.3,59.1,45,59.1C3405.2,529.6,3421.1,511.3,3421.1,470.2z"/>
	<path fill="#376D4F" d="M3658.4,547.9v-16.5l14.4-1.8c3.9-0.3,5.4-1.8,5.4-6v-72.3c0-18.9-4.2-36.9-25.5-36.9
		c-16.2,0-30.3,8.1-39.6,14.7c0.6,5.4,0.9,11.7,0.9,18.3v76.2c0,4.8,0.3,5.4,4.8,6l14.7,2.1v16.2h-66.6v-16.5l14.4-1.8
		c3.9-0.3,5.4-1.8,5.4-6V451c0-17.1-1.2-36.6-22.8-36.6c-15.6,0-31.5,9.3-42.9,18.6v90.6c0,4.8,0.3,5.4,4.8,6l16.2,2.1v16.2h-68.1
		v-16.5l15-1.8c4.2-0.6,4.8-1.5,4.8-6v-102c0-3.3-0.9-5.4-3.9-6.3l-17.1-5.7l2.7-15.9h39.3l2.4,17.7l0.9,0.3
		c15.9-12.3,30.6-21,53.1-21c14.4,0,29.4,5.1,36.9,19.2c13.2-9.6,30.9-19.2,53.1-19.2c34.2,0,44.4,21,44.4,55.8v77.1
		c0,4.8,0.3,5.4,4.8,6l17.1,2.1v16.2H3658.4z"/>
</g>
</svg>
